<svg width="28" height="26" viewBox="0 0 28 26" fill="none" xmlns="http://www.w3.org/2000/svg">
<path d="M25.125 10.8125L25.8625 23.175C25.8875 23.5125 25.725 23.7375 25.6375 23.8375C25.5375 23.95 25.325 24.125 24.975 24.125H21.5625L24.2625 10.8125H25.125ZM26.5 5.99997L26.4875 6.02497C26.5125 6.32497 26.4875 6.63747 26.4125 6.94997L17.2 23.8625C16.9 25.125 15.775 26 14.475 26H24.975C26.5875 26 27.8625 24.6375 27.7375 23.025L26.5 5.99997Z" fill="#F3FFF9"/>
<path d="M13.3125 1.29998C13.4375 0.799981 13.125 0.287482 12.625 0.162482C12.125 0.0499815 11.6125 0.349981 11.4875 0.849981L10.8625 3.43748H12.7875L13.3125 1.29998Z" fill="#F3FFF9"/>
<path d="M21.5625 1.26244C21.675 0.749945 21.35 0.262445 20.8375 0.149945C20.3375 0.037445 19.8375 0.362445 19.725 0.874945L19.1625 3.46244H21.0875L21.5625 1.26244Z" fill="#F3FFF9"/>
<path d="M26.275 5.16246C25.8625 4.16246 24.8875 3.44996 23.6875 3.44996H21.0875L20.3875 6.68746C20.2875 7.12496 19.9 7.42496 19.475 7.42496C19.4125 7.42496 19.3375 7.42496 19.275 7.39996C18.775 7.28746 18.45 6.78746 18.55 6.28746L19.1625 3.43746L12.7875 3.43748L12 6.68746C11.9 7.11246 11.5125 7.39996 11.0875 7.39996C11.0125 7.39996 10.9375 7.38746 10.8625 7.37496C10.3625 7.24996 10.05 6.74996 10.175 6.23746L10.85 3.42496H8.3125C7.0875 3.42496 6 4.22496 5.6375 5.39996L0.374998 22.3375C-0.175002 24.15 1.1625 26 3.05 26H19.475C20.775 26 21.9 25.125 22.2 23.8625L26.4125 6.94997C26.4875 6.63747 26.5125 6.32497 26.4875 6.02497C26.4625 5.72497 26.4 5.42496 26.275 5.16246ZM17.375 19.4375H7.375C6.8625 19.4375 6.4375 19.0125 6.4375 18.5C6.4375 17.9875 6.8625 17.5625 7.375 17.5625H17.375C17.8875 17.5625 18.3125 17.9875 18.3125 18.5C18.3125 19.0125 17.8875 19.4375 17.375 19.4375ZM18.625 14.4375H8.625C8.1125 14.4375 7.6875 14.0125 7.6875 13.5C7.6875 12.9875 8.1125 12.5625 8.625 12.5625H18.625C19.1375 12.5625 19.5625 12.9875 19.5625 13.5C19.5625 14.0125 19.1375 14.4375 18.625 14.4375Z" fill="#F3FFF9"/>
</svg>
