<svg width="40" height="40" viewBox="0 0 40 40" fill="none" xmlns="http://www.w3.org/2000/svg">
<path d="M25.3667 10.9166H9.63333C9.16667 10.9166 8.73333 10.9333 8.33333 10.95C4.38333 11.1833 3.33333 12.6333 3.33333 17.1333V18.1C3.33333 19.0166 4.08333 19.7666 5 19.7666H30C30.9167 19.7666 31.6667 19.0166 31.6667 18.1V17.1333C31.6667 12.1666 30.4 10.9166 25.3667 10.9166Z" fill="#F3FFF9"/>
<path d="M5 22.2666C4.08333 22.2666 3.33333 23.0166 3.33333 23.9333V28.7833C3.33333 33.75 4.6 35 9.63333 35H25.3667C30.3167 35 31.6167 33.8 31.6667 29.05V23.9333C31.6667 23.0166 30.9167 22.2666 30 22.2666H5ZM11.6 30.9333H8.75C8.06667 30.9333 7.5 30.3666 7.5 29.6833C7.5 29 8.06667 28.4333 8.75 28.4333H11.6167C12.3 28.4333 12.8667 29 12.8667 29.6833C12.8667 30.3666 12.3 30.9333 11.6 30.9333ZM20.9167 30.9333H15.1833C14.5 30.9333 13.9333 30.3666 13.9333 29.6833C13.9333 29 14.5 28.4333 15.1833 28.4333H20.9167C21.6 28.4333 22.1667 29 22.1667 29.6833C22.1667 30.3666 21.6167 30.9333 20.9167 30.9333Z" fill="#F3FFF9"/>
<path d="M36.6667 22.2167V13.4833C36.6667 8.26668 33.6833 6.00001 29.1833 6.00001H14.3C13.0333 6.00001 11.9 6.18334 10.9 6.56668C10.1167 6.85001 9.41667 7.26668 8.85 7.81668C8.55 8.10001 8.78334 8.56668 9.21667 8.56668H27.3333C31.0833 8.56668 34.1167 11.6 34.1167 15.35V27.3C34.1167 27.7167 34.5667 27.95 34.8667 27.65C36.0167 26.4333 36.6667 24.65 36.6667 22.2167Z" fill="#F3FFF9"/>
</svg>
