<svg width="34" height="34" viewBox="0 0 34 34" fill="none" xmlns="http://www.w3.org/2000/svg">
<path d="M23.9833 0.333344H10.0166C3.94998 0.333344 0.333313 3.95001 0.333313 10.0167V23.9667C0.333313 30.05 3.94998 33.6667 10.0166 33.6667H23.9666C30.0333 33.6667 33.65 30.05 33.65 23.9833V10.0167C33.6666 3.95001 30.05 0.333344 23.9833 0.333344ZM25.1333 20.8833C25.1333 21.0333 25.1 21.1833 25.05 21.3333C24.9333 21.6167 24.7 21.85 24.4166 21.9667C24.2666 22.0333 24.1166 22.05 23.9666 22.05H20.8666C20.2166 22.05 19.7 21.5333 19.7 20.8833C19.7 20.2333 20.2166 19.7167 20.8666 19.7167H21.1666L17.65 16.2L15.95 18.7333C15.75 19.0167 15.45 19.2167 15.1 19.25C14.75 19.2833 14.4166 19.1667 14.1666 18.9167L9.19998 13.95C8.74998 13.5 8.74998 12.7667 9.19998 12.3C9.64998 11.8333 10.3833 11.85 10.85 12.3L14.8166 16.2667L16.5166 13.7333C16.7166 13.45 17.0166 13.25 17.3666 13.2167C17.7333 13.1833 18.05 13.3 18.3 13.55L22.8333 18.0833V17.7833C22.8333 17.1333 23.35 16.6167 24 16.6167C24.65 16.6167 25.1666 17.1333 25.1666 17.7833V20.8833H25.1333Z" fill="#F3FFF9"/>
</svg>
