<svg width="34" height="34" viewBox="0 0 34 34" fill="none" xmlns="http://www.w3.org/2000/svg">
<path d="M2 21.7204V25.32C2 27.5602 2 28.6795 2.36331 29.5352C2.68288 30.2878 3.19244 30.9009 3.81964 31.2844C4.53198 31.72 5.46495 31.72 7.32813 31.72H32M2 21.7204V1.71997M2 21.7204L8.42226 15.2981L8.42757 15.293C9.58936 14.1312 10.1714 13.5492 10.8025 13.3127C11.548 13.0335 12.3511 13.0776 13.0725 13.4368C13.684 13.7412 14.2203 14.3847 15.2928 15.6717L15.3035 15.6847C16.3927 16.9916 16.9387 17.6469 17.5601 17.9507C18.2954 18.3101 19.114 18.3411 19.8676 18.0411C20.5066 17.7868 21.0901 17.1751 22.2569 15.9499L31.9996 5.71997" stroke="white" stroke-width="3" stroke-linecap="round" stroke-linejoin="round"/>
</svg>
