<svg width="34" height="34" viewBox="0 0 34 34" fill="none" xmlns="http://www.w3.org/2000/svg">
<path d="M32 26.7324V16.5482C32 15.5673 31.9991 15.0766 31.8773 14.6202C31.7694 14.2157 31.5921 13.8329 31.3523 13.487C31.0817 13.0967 30.7054 12.7731 29.9514 12.1271L20.9514 4.41731C19.5515 3.21809 18.8516 2.61878 18.0638 2.39071C17.3697 2.18975 16.6299 2.18975 15.9358 2.39071C15.1486 2.61861 14.4497 3.21735 13.0519 4.41476L4.04895 12.1272C3.29495 12.7731 2.91883 13.0967 2.64819 13.487C2.40836 13.8329 2.22978 14.2157 2.12182 14.6202C2 15.0766 2 15.5673 2 16.5482V26.7324C2 28.443 2 29.298 2.28545 29.9727C2.66605 30.8723 3.3956 31.5879 4.31445 31.9605C5.00359 32.24 5.87724 32.24 7.62452 32.24C9.3718 32.24 10.2464 32.24 10.9355 31.9605C11.8544 31.5879 12.5838 30.8725 12.9644 29.9729C13.2498 29.2982 13.25 28.4429 13.25 26.7322V24.8966C13.25 22.8689 14.9289 21.2252 17 21.2252C19.0711 21.2252 20.75 22.8689 20.75 24.8966V26.7322C20.75 28.4429 20.75 29.2982 21.0355 29.9729C21.4161 30.8725 22.1456 31.5879 23.0645 31.9605C23.7536 32.24 24.6272 32.24 26.3745 32.24C28.1218 32.24 28.9964 32.24 29.6855 31.9605C30.6044 31.5879 31.3338 30.8723 31.7144 29.9727C31.9998 29.298 32 28.443 32 26.7324Z" stroke="#FFA114" stroke-width="3" stroke-linecap="round" stroke-linejoin="round"/>
<path d="M32 26.7324V16.5482C32 15.5673 31.9991 15.0766 31.8773 14.6202C31.7694 14.2157 31.5921 13.8329 31.3523 13.487C31.0817 13.0967 30.7054 12.7731 29.9514 12.1271L20.9514 4.41731C19.5515 3.21809 18.8516 2.61878 18.0638 2.39071C17.3697 2.18975 16.6299 2.18975 15.9358 2.39071C15.1486 2.61861 14.4497 3.21735 13.0519 4.41476L4.04895 12.1272C3.29495 12.7731 2.91883 13.0967 2.64819 13.487C2.40836 13.8329 2.22978 14.2157 2.12182 14.6202C2 15.0766 2 15.5673 2 16.5482V26.7324C2 28.443 2 29.298 2.28545 29.9727C2.66605 30.8723 3.3956 31.5879 4.31445 31.9605C5.00359 32.24 5.87724 32.24 7.62452 32.24C9.3718 32.24 10.2464 32.24 10.9355 31.9605C11.8544 31.5879 12.5838 30.8725 12.9644 29.9729C13.2498 29.2982 13.25 28.4429 13.25 26.7322V24.8966C13.25 22.8689 14.9289 21.2252 17 21.2252C19.0711 21.2252 20.75 22.8689 20.75 24.8966V26.7322C20.75 28.4429 20.75 29.2982 21.0355 29.9729C21.4161 30.8725 22.1456 31.5879 23.0645 31.9605C23.7536 32.24 24.6272 32.24 26.3745 32.24C28.1218 32.24 28.9964 32.24 29.6855 31.9605C30.6044 31.5879 31.3338 30.8723 31.7144 29.9727C31.9998 29.298 32 28.443 32 26.7324Z" stroke="#F3FFF9" stroke-width="3" stroke-linecap="round" stroke-linejoin="round"/>
</svg>
