<svg width="26" height="26" viewBox="0 0 26 26" fill="none" xmlns="http://www.w3.org/2000/svg">
<path d="M22.875 14.875H3.125C1.25 14.875 0.5 15.675 0.5 17.6625V22.7125C0.5 24.7 1.25 25.5 3.125 25.5H22.875C24.75 25.5 25.5 24.7 25.5 22.7125V17.6625C25.5 15.675 24.75 14.875 22.875 14.875Z" fill="#F3FFF9"/>
<path d="M22.875 0.5H3.125C1.25 0.5 0.5 1.3 0.5 3.2875V8.3375C0.5 10.325 1.25 11.125 3.125 11.125H22.875C24.75 11.125 25.5 10.325 25.5 8.3375V3.2875C25.5 1.3 24.75 0.5 22.875 0.5Z" fill="#F3FFF9"/>
</svg>
