<svg width="26" height="34" viewBox="0 0 26 34" fill="none" xmlns="http://www.w3.org/2000/svg">
<path d="M13.0292 28.8996C9.63125 28.8996 6.23334 28.36 3.01042 27.2808C1.78542 26.8579 0.852086 25.9975 0.443752 24.8746C0.0208358 23.7517 0.166669 22.5121 0.837502 21.4038L2.51459 18.6183C2.86459 18.035 3.18542 16.8683 3.18542 16.1829V11.9683C3.18542 6.54334 7.60417 2.12459 13.0292 2.12459C18.4542 2.12459 22.8729 6.54334 22.8729 11.9683V16.1829C22.8729 16.8538 23.1938 18.035 23.5438 18.6329L25.2063 21.4038C25.8333 22.4538 25.95 23.7225 25.5271 24.8746C25.1042 26.0267 24.1854 26.9017 23.0333 27.2808C19.825 28.36 16.4271 28.8996 13.0292 28.8996ZM13.0292 4.31209C8.81459 4.31209 5.37292 7.73918 5.37292 11.9683V16.1829C5.37292 17.2475 4.93542 18.8225 4.39584 19.7413L2.71875 22.5267C2.39792 23.0663 2.31042 23.635 2.5 24.1163C2.675 24.6121 3.1125 24.9913 3.71042 25.1954C9.80625 27.2371 16.2667 27.2371 22.3625 25.1954C22.8875 25.0204 23.2958 24.6267 23.4854 24.1017C23.675 23.5767 23.6313 23.0079 23.3396 22.5267L21.6625 19.7413C21.1083 18.7933 20.6854 17.2329 20.6854 16.1683V11.9683C20.6854 7.73918 17.2583 4.31209 13.0292 4.31209Z" fill="#F3FFF9"/>
<path d="M15.7417 4.70579C15.6396 4.70579 15.5375 4.6912 15.4354 4.66204C15.0125 4.54537 14.6042 4.45787 14.2104 4.39954C12.9708 4.23912 11.775 4.32662 10.6521 4.66204C10.2437 4.79329 9.80625 4.66204 9.52917 4.35579C9.25208 4.04954 9.16458 3.61204 9.325 3.21829C9.92291 1.68704 11.3812 0.680786 13.0437 0.680786C14.7062 0.680786 16.1646 1.67245 16.7625 3.21829C16.9083 3.61204 16.8354 4.04954 16.5583 4.35579C16.3396 4.58912 16.0333 4.70579 15.7417 4.70579Z" fill="#F3FFF9"/>
<path d="M13.0292 33.3912C11.5854 33.3912 10.1854 32.8079 9.16459 31.7871C8.14375 30.7662 7.56042 29.3662 7.56042 27.9225H9.74792C9.74792 28.7829 10.0979 29.6287 10.7104 30.2412C11.3229 30.8537 12.1688 31.2037 13.0292 31.2037C14.8375 31.2037 16.3104 29.7308 16.3104 27.9225H18.4979C18.4979 30.9412 16.0479 33.3912 13.0292 33.3912Z" fill="#F3FFF9"/>
</svg>
