<svg width="34" height="34" viewBox="0 0 34 34" fill="none" xmlns="http://www.w3.org/2000/svg">
<path d="M25.6944 29.2204C23.5582 26.8346 20.4544 25.3333 17 25.3333C13.5456 25.3333 10.4415 26.8346 8.30534 29.2204M17 31.9999C8.71573 31.9999 2 25.2842 2 16.9999C2 8.71567 8.71573 1.99994 17 1.99994C25.2843 1.99994 32 8.71567 32 16.9999C32 25.2842 25.2843 31.9999 17 31.9999ZM17 20.3333C14.2386 20.3333 12 18.0947 12 15.3333C12 12.5718 14.2386 10.3333 17 10.3333C19.7614 10.3333 22 12.5718 22 15.3333C22 18.0947 19.7614 20.3333 17 20.3333Z" stroke="white" stroke-width="3" stroke-linecap="round" stroke-linejoin="round"/>
</svg>
