<svg width="34" height="34" viewBox="0 0 34 34" fill="none" xmlns="http://www.w3.org/2000/svg">
<path d="M9.5 2.47998H8.00037C5.90017 2.47998 4.84929 2.47998 4.04712 2.88871C3.34151 3.24823 2.76825 3.82149 2.40873 4.5271C2 5.32927 2 6.38015 2 8.48035V25.48C2 27.5802 2 29.6301 2.40873 30.4323C2.76825 31.1379 3.34151 31.7121 4.04712 32.0717C4.8485 32.48 5.89811 32.48 7.99421 32.48H9.5M9.5 2.47998H26.0004C28.1006 2.47998 29.1492 2.47998 29.9514 2.88871C30.657 3.24823 31.2321 3.82149 31.5917 4.5271C32 5.32848 32 6.37809 32 8.47419V26.4867C32 28.5828 32 29.6309 31.5917 30.4323C31.2321 31.1379 30.657 31.7121 29.9514 32.0717C29.15 32.48 28.1019 32.48 26.0058 32.48H9.5M9.5 2.47998V17.98V32.48M17.5 16.98H21.5H24.5M17 9.97998H20.75H24.5" stroke="white" stroke-width="3" stroke-linecap="round" stroke-linejoin="round"/>
</svg>
