<svg width="34" height="34" viewBox="0 0 34 34" fill="none" xmlns="http://www.w3.org/2000/svg">
<path d="M23.9833 0.333344H10.0166C3.94998 0.333344 0.333313 3.95001 0.333313 10.0167V23.9667C0.333313 30.05 3.94998 33.6667 10.0166 33.6667H23.9666C30.0333 33.6667 33.65 30.05 33.65 23.9833V10.0167C33.6666 3.95001 30.05 0.333344 23.9833 0.333344ZM25.1333 16.2167C25.1333 16.8667 24.6166 17.3833 23.9666 17.3833C23.3166 17.3833 22.8 16.8667 22.8 16.2167V15.9167L18.2666 20.45C18.0166 20.7 17.6833 20.8167 17.3333 20.7833C16.9833 20.75 16.6666 20.5667 16.4833 20.2667L14.7833 17.7333L10.8166 21.7C10.5833 21.9333 10.3 22.0333 9.99998 22.0333C9.69998 22.0333 9.39998 21.9167 9.18331 21.7C8.73331 21.25 8.73331 20.5167 9.18331 20.05L14.15 15.0833C14.4 14.8333 14.7333 14.7167 15.0833 14.75C15.4333 14.7833 15.75 14.9667 15.9333 15.2667L17.6333 17.8L21.15 14.2833H20.85C20.2 14.2833 19.6833 13.7667 19.6833 13.1167C19.6833 12.4667 20.2 11.95 20.85 11.95H23.95C24.1 11.95 24.25 11.9833 24.4 12.0333C24.6833 12.15 24.9166 12.3833 25.0333 12.6667C25.1 12.8167 25.1166 12.9667 25.1166 13.1167V16.2167H25.1333Z" fill="#F3FFF9"/>
</svg>
