<svg width="40" height="40" viewBox="0 0 40 40" fill="none" xmlns="http://www.w3.org/2000/svg">
<path d="M24.75 6.58334V12.9167H22.25V6.58334C22.25 6.13334 21.85 5.91668 21.5834 5.91668C21.5 5.91668 21.4167 5.93334 21.3334 5.96667L8.1167 10.95C7.23337 11.2833 6.6667 12.1167 6.6667 13.0667V14.1833C5.15003 15.3167 4.1667 17.1333 4.1667 19.1833V13.0667C4.1667 11.0833 5.38337 9.31668 7.23337 8.61668L20.4667 3.61668C20.8334 3.48334 21.2167 3.41667 21.5834 3.41667C23.25 3.41667 24.75 4.76668 24.75 6.58334Z" fill="#F3FFF9"/>
<path d="M35.8332 24.1667V25.8334C35.8332 26.2834 35.4832 26.6501 35.0166 26.6667H32.5832C31.6999 26.6667 30.8999 26.0167 30.8332 25.1501C30.7832 24.6334 30.9832 24.1501 31.3166 23.8167C31.6166 23.5001 32.0332 23.3334 32.4832 23.3334H34.9999C35.4832 23.3501 35.8332 23.7167 35.8332 24.1667Z" fill="#F3FFF9"/>
<path d="M32.4667 21.5833H34.1667C35.0834 21.5833 35.8334 20.8333 35.8334 19.9166V19.1833C35.8334 15.7333 33.0167 12.9166 29.5667 12.9166H10.4334C9.0167 12.9166 7.7167 13.3833 6.6667 14.1833C5.15003 15.3167 4.1667 17.1333 4.1667 19.1833V30.3999C4.1667 33.8499 6.98337 36.6666 10.4334 36.6666H29.5667C33.0167 36.6666 35.8334 33.8499 35.8334 30.3999V30.0833C35.8334 29.1666 35.0834 28.4166 34.1667 28.4166H32.7167C31.1167 28.4166 29.5834 27.4333 29.1667 25.8833C28.8167 24.6166 29.2334 23.3999 30.0667 22.5833C30.6834 21.9499 31.5334 21.5833 32.4667 21.5833ZM23.3334 21.2499H11.6667C10.9834 21.2499 10.4167 20.6833 10.4167 19.9999C10.4167 19.3166 10.9834 18.7499 11.6667 18.7499H23.3334C24.0167 18.7499 24.5834 19.3166 24.5834 19.9999C24.5834 20.6833 24.0167 21.2499 23.3334 21.2499Z" fill="#F3FFF9"/>
</svg>
